# xmcd
#
# Track frame offsets:
#	150
#	11785
#	25013
#	37787
#	51782
#	63045
#	75288
#	88172
#	101336
#	114308
#	126501
#	138107
#	150190
#	161592
#	173277
#	186819
#	199332
#	212427
#	226557
#	240454
#	252901
#	266720
#	279309
#	291694
#	304484
#	318279
#	330869
#
# Disc length: 4594 seconds
#
# Revision: 0
# Processed by: cddbd v1.5.1PL0 Copyright (c) Steve Scherf et al.
# Submitted via: EasyCDDAExtractor 4.6.9.1
#
DISCID=5611f01b
DTITLE=Leon's Lone Star Cowboys - Western Swing Chronicles Vol. 2
DYEAR=1900
DGENRE=Western Swing
TTITLE0=Triflin' Woman Blues
TTITLE1=Just Because
TTITLE2=Who Walks In When I Walk Out
TTITLE3=No Mama Blues
TTITLE4=Bugle Call Rag
TTITLE5=Too Good To Be True
TTITLE6=Wonderful Child
TTITLE7=Texas Plains
TTITLE8=Baby Won't You Come Along
TTITLE9=Ben Wheeler Stomp
TTITLE10=Angry
TTITLE11=Red Hot Mama From Way Out West
TTITLE12=Hang Out The Front Door Key
TTITLE13=Kansas City Blues
TTITLE14=Milenburg Joys
TTITLE15=I Never Knew
TTITLE16=It's All Coming Home To You
TTITLE17=China Boy
TTITLE18=Trouble In Mind
TTITLE19=Crawdad Song
TTITLE20=She's Got Me Worried
TTITLE21=Mr. And Mrs. Is The Name
TTITLE22=Deep Elm Blues
TTITLE23=White River Stomp
TTITLE24=You're In My Heart To Stay
TTITLE25=I'm A Do Right Papa
TTITLE26=Too Good To Be True
EXTD=
EXTT0=
EXTT1=
EXTT2=
EXTT3=
EXTT4=
EXTT5=
EXTT6=
EXTT7=
EXTT8=
EXTT9=
EXTT10=
EXTT11=
EXTT12=
EXTT13=
EXTT14=
EXTT15=
EXTT16=
EXTT17=
EXTT18=
EXTT19=
EXTT20=
EXTT21=
EXTT22=
EXTT23=
EXTT24=
EXTT25=
EXTT26=
PLAYORDER=
